<svg xmlns="http://www.w3.org/2000/svg" xmlns:xlink="http://www.w3.org/1999/xlink" width="272.543" height="272.742" viewBox="0 0 272.543 272.742">
  <defs>
    <linearGradient id="linear-gradient" x1="56.766" y1="0.238" x2="55.931" y2="0.678" gradientUnits="objectBoundingBox">
      <stop offset="0" stop-color="#febbba"/>
      <stop offset="1" stop-color="#ff928e"/>
    </linearGradient>
    <linearGradient id="linear-gradient-2" x1="67.596" y1="0.225" x2="70.999" y2="-1.251" xlink:href="#linear-gradient"/>
    <linearGradient id="linear-gradient-3" x1="-42.678" y1="0.5" x2="-41.678" y2="0.5" xlink:href="#linear-gradient"/>
    <linearGradient id="linear-gradient-4" x1="-187.58" y1="-9.329" x2="-187.396" y2="-10.409" xlink:href="#linear-gradient"/>
    <linearGradient id="linear-gradient-5" x1="-144.145" y1="-74.182" x2="-142.577" y2="-76.457" xlink:href="#linear-gradient"/>
    <linearGradient id="linear-gradient-6" x1="-588.112" y1="-242.507" x2="-581.706" y2="-249.953" xlink:href="#linear-gradient"/>
    <linearGradient id="linear-gradient-7" x1="-122.514" y1="0.5" x2="-121.514" y2="0.5" xlink:href="#linear-gradient"/>
    <linearGradient id="linear-gradient-8" x1="-132.147" y1="0.5" x2="-131.147" y2="0.5" xlink:href="#linear-gradient"/>
    <linearGradient id="linear-gradient-9" x1="-35.417" y1="0.5" x2="-34.417" y2="0.5" xlink:href="#linear-gradient"/>
    <linearGradient id="linear-gradient-10" x1="-56.764" y1="0.5" x2="-55.764" y2="0.5" xlink:href="#linear-gradient"/>
    <linearGradient id="linear-gradient-11" x1="-18.72" y1="0.36" x2="-19.96" y2="7.417" xlink:href="#linear-gradient"/>
    <linearGradient id="linear-gradient-12" x1="-64.478" y1="-21.693" x2="-66.097" y2="-20.341" xlink:href="#linear-gradient"/>
    <linearGradient id="linear-gradient-13" x1="-170.203" y1="-59.674" x2="-166.951" y2="-62.063" xlink:href="#linear-gradient"/>
    <linearGradient id="linear-gradient-14" x1="-8.908" y1="131.976" x2="-9.169" y2="101.035" gradientUnits="objectBoundingBox">
      <stop offset="0" stop-color="#bdd422"/>
      <stop offset="1" stop-color="#78910f"/>
    </linearGradient>
    <linearGradient id="linear-gradient-15" x1="60.435" y1="-0.843" x2="59.929" y2="2.39" xlink:href="#linear-gradient"/>
    <linearGradient id="linear-gradient-17" x1="65.526" y1="-0.223" x2="65.011" y2="2.539" xlink:href="#linear-gradient"/>
    <linearGradient id="linear-gradient-18" x1="0.265" y1="1.572" x2="0.684" y2="0.2" xlink:href="#linear-gradient"/>
    <linearGradient id="linear-gradient-19" x1="0.799" y1="-0.337" x2="0.056" y2="1.68" xlink:href="#linear-gradient"/>
    <linearGradient id="linear-gradient-20" x1="-43.037" y1="-0.337" x2="-43.78" y2="1.68" xlink:href="#linear-gradient"/>
    <linearGradient id="linear-gradient-21" x1="-51.512" y1="-16.238" x2="-51.834" y2="-17.304" xlink:href="#linear-gradient"/>
    <linearGradient id="linear-gradient-22" x1="-169.091" y1="-81.176" x2="-170.035" y2="-85.823" xlink:href="#linear-gradient"/>
    <linearGradient id="linear-gradient-23" x1="0.019" y1="0.826" x2="0.955" y2="0.287" gradientUnits="objectBoundingBox">
      <stop offset="0" stop-color="#00b14f"/>
      <stop offset="1" stop-color="#62fe96"/>
    </linearGradient>
  </defs>
  <g id="Illustration" transform="translate(-561.378 -450)">
    <g id="Group_36" data-name="Group 36" transform="translate(561.378 450)">
      <path id="Path_1774" data-name="Path 1774" d="M798.83,633.093c-25.337,59.659-92.83,93.081-151.36,84.065-9.524-1.467-35.634-5.837-58.751-26.453C544.216,651.02,534.7,572.435,570.6,517.054c26.128-40.307,72.964-63.156,117.468-62.013,9.586.246,46.324,1.763,78.611,28.386A121.085,121.085,0,0,1,791.3,511.371C813.44,545.986,815.342,594.213,798.83,633.093Z" transform="translate(-541.576 -455)" fill="#fefefe"/>
      <g id="Group_7" data-name="Group 7" transform="translate(25.738 44.497)">
        <g id="Group_5" data-name="Group 5" transform="translate(0 27.26)">
          <path id="Path_1775" data-name="Path 1775" d="M743.376,1181.413a1.241,1.241,0,0,1,2.406-.1c3.469,11.984,13.549,43.125,28.8,59.568,24.835,26.774,41.574,70.443,25.994,93.26C800.577,1334.145,714.88,1319.1,743.376,1181.413Z" transform="translate(-737.572 -1180.425)" fill="#f9d8c5"/>
          <path id="Path_1776" data-name="Path 1776" d="M821.626,1361.362c.034.392.093.714.141,1.062l.164,1.023.352,2.04c.244,1.358.508,2.712.772,4.066q.808,4.059,1.707,8.1c1.2,5.386,2.553,10.738,3.982,16.069s2.993,10.627,4.676,15.885,3.45,10.491,5.383,15.664a265.057,265.057,0,0,0,13.372,30.308c2.607,4.873,5.344,9.68,8.353,14.318a143.47,143.47,0,0,0,9.832,13.334.218.218,0,0,0,.339-.273l0,0a160.32,160.32,0,0,1-9.409-13.542c-2.917-4.66-5.561-9.486-8.076-14.373s-4.827-9.88-7.028-14.919-4.189-10.171-6.149-15.31c-3.877-10.3-7.2-20.8-10.238-31.382q-2.259-7.942-4.21-15.97-.985-4.011-1.887-8.041l-.866-4.037-.412-2.022-.195-1.012c-.059-.333-.127-.689-.166-.982l-.006-.048a.216.216,0,0,0-.429.047Z" transform="translate(-813.311 -1343.253)" fill="#fff" opacity="0.43"/>
        </g>
        <g id="Group_6" data-name="Group 6" transform="translate(21.446)">
          <path id="Path_1777" data-name="Path 1777" d="M980.136,905.464a1.188,1.188,0,0,1,2.233.567c-.088,11.937.66,43.244,10.162,62.484,15.471,31.328,18.908,75.941-1.6,92.616C990.927,1061.131,916.441,1023.959,980.136,905.464Z" transform="translate(-954.377 -904.839)" fill="#febb94"/>
          <path id="Path_1778" data-name="Path 1778" d="M1168.695,1075.273c-.076.37-.11.68-.161,1.012l-.128.983-.235,1.967c-.148,1.312-.275,2.626-.4,3.94q-.367,3.943-.646,7.893c-.366,5.267-.59,10.544-.734,15.822s-.155,10.562-.047,15.843.3,10.562.663,15.834a253.418,253.418,0,0,0,4,31.443c1.063,5.18,2.261,10.335,3.756,15.409a137.087,137.087,0,0,0,5.383,14.91.212.212,0,0,0,.392-.161v0a153.6,153.6,0,0,1-4.931-14.986c-1.4-5.069-2.51-10.216-3.482-15.384s-1.731-10.377-2.374-15.6-1.066-10.47-1.462-15.717c-.747-10.5-.932-21.039-.829-31.571q.094-7.9.494-15.794.19-3.946.461-7.889l.306-3.939.173-1.967.1-.982c.037-.321.072-.667.115-.946l.007-.047a.21.21,0,0,0-.413-.075Z" transform="translate(-1145.308 -1058.263)" fill="#fff" opacity="0.43"/>
        </g>
      </g>
      <path id="Path_1779" data-name="Path 1779" d="M1454.365,2057.9H1339.684V1936.419a4.813,4.813,0,0,1,4.813-4.813h106.8a4.813,4.813,0,0,1,4.813,4.813v119.733A1.75,1.75,0,0,1,1454.365,2057.9Z" transform="translate(-1254.386 -1785.543)" fill="#00b14f"/>
      <path id="Rectangle_317" data-name="Rectangle 317" d="M5,0H96.474a5,5,0,0,1,5,5V78.926a0,0,0,0,1,0,0H0a0,0,0,0,1,0,0V5A5,5,0,0,1,5,0Z" transform="translate(171.069 193.794)" fill="#b8f9bf"/>
      <path id="Rectangle_318" data-name="Rectangle 318" d="M5,0H88.008a5,5,0,0,1,5,5V74.476a0,0,0,0,1,0,0H0a0,0,0,0,1,0,0V5A5,5,0,0,1,5,0Z" transform="translate(0 198.266)" fill="#7ed88d"/>
      <g id="Group_23" data-name="Group 23" transform="translate(15.717 143.546)">
        <path id="Path_1795" data-name="Path 1795" d="M904.757,2333.4c-.034-.013-18.256-31.925-20.719-34.928a1.909,1.909,0,0,0-1.7-.685l-5.086.606-5.975,12.927,9.954-5.8c-.985,6.812,11.8,16.936,16.189,20.63a1.007,1.007,0,0,1,.08,1.467l-1.751,1.833a20.112,20.112,0,0,0,9.935,5.65Z" transform="translate(-848.026 -2259.034)" fill="url(#linear-gradient)"/>
        <path id="Path_1796" data-name="Path 1796" d="M1114.663,2608.029a2.58,2.58,0,0,0-1.5,1.356,1.138,1.138,0,0,0,.428,1.312c1.84,1.319,7.91,5.574,10.711,6.408a.317.317,0,0,0,.4-.373,10.092,10.092,0,0,0-2.107-3.852l.135.272a.389.389,0,0,1-.539.513C1120.318,2612.608,1116.5,2610.293,1114.663,2608.029Z" transform="translate(-1065.932 -2538.602)" fill="#1d5a27"/>
        <path id="Path_1797" data-name="Path 1797" d="M880.021,2374.106c-.031-.02-2.765-6.607-2.8-6.626a115.976,115.976,0,0,0-10.426-31.771,1.908,1.908,0,0,0-1.53-1.016l-5.1-.436-8.468,11.449,10.922-3.662c-2.343,6.472,8.131,18.974,11.679,23.479a1.008,1.008,0,0,1-.219,1.453l-2.086,1.44a20.111,20.111,0,0,0,8.586,7.544Z" transform="translate(-830.388 -2291.91)" fill="url(#linear-gradient-2)"/>
        <path id="Path_1798" data-name="Path 1798" d="M1051.59,2671.874a2.58,2.58,0,0,0-1.74,1.025,1.139,1.139,0,0,0,.154,1.372c1.535,1.663,6.618,7.06,9.192,8.443a.317.317,0,0,0,.464-.285,10.1,10.1,0,0,0-1.284-4.2l.077.294a.389.389,0,0,1-.631.393C1056.2,2677.5,1052.933,2674.464,1051.59,2671.874Z" transform="translate(-1008.792 -2596.131)" fill="#1d5a27"/>
        <g id="Group_19" data-name="Group 19" transform="translate(0.841 39.732)">
          <path id="Path_1799" data-name="Path 1799" d="M649.812,2308.035s-4.617,6.867-5,10,1.277,4.216,6.109,4.615c14.38,1.189,21.469-3.121,21.469-3.121.984-6.272,1.684-7.868,9.9-11.278,0,0-10.391.825-12.483.014S649.812,2308.035,649.812,2308.035Z" transform="translate(-644.764 -2307.833)" fill="#00b14f"/>
        </g>
        <g id="Group_21" data-name="Group 21">
          <path id="Path_1800" data-name="Path 1800" d="M679.414,1907.625s-3.216-3.8-6.634.863c-.619.845-3,.148-3.869,1.917a2.247,2.247,0,0,1-2.424,1.248c-2.495-.46-6.572-.5-8.585,3.41-1.537,2.984-.35,4.73,1.186,5.726a2.518,2.518,0,0,1,.849,3.374c-.654,1.111-.778,2.616.912,4.427,3.786,4.058,11.282-2.575,11.282-2.575l5.951-14.063Z" transform="translate(-655.115 -1906.164)" fill="#070908"/>
          <path id="Path_1801" data-name="Path 1801" d="M665.682,2073.936a105.348,105.348,0,0,0,8.023-8.51,7.194,7.194,0,0,0,1.218-6.475,89.4,89.4,0,0,0-3.552-8.943c-.3-1.006-6.328-.964-6.328-.964s-11.862,7.7-16.523,20.74l5.234,1.629a61.159,61.159,0,0,1,6.158-8.5s-5.3,7-5.482,9.859Z" transform="translate(-647.308 -2034.91)" fill="#00b14f"/>
          <path id="Path_1802" data-name="Path 1802" d="M664.881,2264.89l-4.04-4.4-4.665,1.256s-5.439.842-8.552,0l-3.113-.843-7.035-2.19-1.1,3.123a1.879,1.879,0,0,0,.687,2.16,12.42,12.42,0,0,0,1.777,1.107c.926.405,21.342.128,21.342.128Z" transform="translate(-636.263 -2223.844)" fill="url(#linear-gradient-3)"/>
          <path id="Path_1803" data-name="Path 1803" d="M820.537,1970.456l-4.052,7.534c.267,1.645,4.41,1.691,5.05.709a.972.972,0,0,0,.127-.332l2.424-5.034c.1-.491-1.242-2.145-1.685-2.38l-1.61-.857C820.17,1969.765,822.758,1969.739,820.537,1970.456Z" transform="translate(-798.658 -1963.57)" fill="url(#linear-gradient-4)"/>
          <g id="Group_20" data-name="Group 20" transform="translate(19.928 0.221)">
            <path id="Path_1804" data-name="Path 1804" d="M864.191,1941.185a8.915,8.915,0,0,1-1.543,5.782c-2,3.237-3.993,3.09-5.005,1.936a7.114,7.114,0,0,1-1.673-6.3C856.521,1939.37,863.5,1937.939,864.191,1941.185Z" transform="translate(-854.04 -1936.288)" fill="url(#linear-gradient-5)"/>
            <path id="Path_1805" data-name="Path 1805" d="M842.077,1915.056s3.24-4.255,5.727-.546l-.042,1.282s3.234-.151,2.884-3.132-2.991-5.018-6.652-4-5.8,2.179-6.213,4.72,1.662,2.126,1.662,2.126.793-1.754,1.75-1.873.611,1.267.611,1.267Z" transform="translate(-837.726 -1908.395)" fill="#070908"/>
            <path id="Path_1806" data-name="Path 1806" d="M862.686,1950.154s1.678-2.177.151-2.63-1.47,2.134-1.371,3.1Z" transform="translate(-859.079 -1943.606)" fill="url(#linear-gradient-6)"/>
          </g>
        </g>
        <g id="Group_22" data-name="Group 22" transform="translate(14.456 25.915)">
          <path id="Path_1807" data-name="Path 1807" d="M783.194,2323.369h.043l18.581-.02a.832.832,0,1,0,0-1.664l-18.581.021a.832.832,0,0,0-.041,1.662Z" transform="translate(-782.404 -2306.498)" fill="#005d0c"/>
          <path id="Path_1808" data-name="Path 1808" d="M917.1,2168.146H901.625a2.949,2.949,0,0,0-2.667,1.691l-7.154,15.169h19.231a1.793,1.793,0,0,0,1.667-1.134l5.547-14.037A1.236,1.236,0,0,0,917.1,2168.146Z" transform="translate(-880.982 -2168.146)" fill="#005d0c"/>
          <path id="Path_1809" data-name="Path 1809" d="M1035.957,2232.656c-.335,1.042-.088,2.054.553,2.26s1.432-.471,1.768-1.513.088-2.054-.553-2.26S1036.292,2231.614,1035.957,2232.656Z" transform="translate(-1010.741 -2224.878)" fill="#91b3fa"/>
        </g>
      </g>
      <g id="Group_30" data-name="Group 30" transform="translate(181.424 116.472)">
        <g id="Group_24" data-name="Group 24" transform="translate(36.546 46.274)">
          <rect id="Rectangle_319" data-name="Rectangle 319" width="2.14" height="23.147" transform="translate(11.061 5.512)" fill="#7df4a1"/>
          <path id="Path_1810" data-name="Path 1810" d="M2727.542,2381.8H2708.8v-1.214a.179.179,0,0,1,.179-.179h18.374a.193.193,0,0,1,.193.193Z" transform="translate(-2706.038 -2352.69)" fill="#7df4a1"/>
          <path id="Rectangle_320" data-name="Rectangle 320" d="M3.552,0H21.5a3.552,3.552,0,0,1,3.552,3.552v0A3.552,3.552,0,0,1,21.5,7.1H3.552A3.552,3.552,0,0,1,0,3.552v0A3.552,3.552,0,0,1,3.552,0Z" fill="#7df4a1"/>
        </g>
        <g id="Group_26" data-name="Group 26" transform="translate(18.336)">
          <path id="Path_1811" data-name="Path 1811" d="M2635.9,2338.779s-6.112,4.405-5.051,7.365c0,0,6.687-2.885,7.495-5.158s-.136-3.276-.136-3.276Z" transform="translate(-2617.48 -2267.947)" fill="#005d0c"/>
          <path id="Path_1812" data-name="Path 1812" d="M2667.661,2311.2l1,2.889a1,1,0,0,1-.39,1.179,2.627,2.627,0,0,1-.827.32,1.169,1.169,0,0,1-1.294-.587l-1.2-2.251Z" transform="translate(-2648.323 -2244.056)" fill="url(#linear-gradient-7)"/>
          <path id="Path_1813" data-name="Path 1813" d="M2613.063,2048.3s-12.553,2.176-17.938,7.15,4.943,20.843,4.943,20.843a6.434,6.434,0,0,0,3.743-1.768s-6.124-11.935-.846-15.415a33.993,33.993,0,0,1,12.771-4.793l-2.55-5.633Z" transform="translate(-2584 -2007.169)" fill="#005d50"/>
          <path id="Path_1814" data-name="Path 1814" d="M2622.638,2375.312c1.344-.622,5.15-3.286,5.792-3.4s1.754.636,1.754.636a1.735,1.735,0,0,1-.019,1.336,12.015,12.015,0,0,1-5.543,3.909,4.645,4.645,0,0,1-4.187-.578A5.66,5.66,0,0,1,2622.638,2375.312Z" transform="translate(-2608.208 -2298.751)" fill="#005d0c"/>
          <path id="Path_1815" data-name="Path 1815" d="M2621.066,2395.867a12.018,12.018,0,0,0,5.544-3.909,5.4,5.4,0,0,1-1.611,2.179,13.682,13.682,0,0,1-7.928,2.774c-.78-.12-.706-.839-.191-1.621A4.646,4.646,0,0,0,2621.066,2395.867Z" transform="translate(-2604.652 -2316.83)" fill="#7df4a1"/>
          <path id="Path_1816" data-name="Path 1816" d="M2698.342,2349.6a10.354,10.354,0,0,1-1.214,2.353,1.155,1.155,0,0,1-.977.547,2.967,2.967,0,0,1-.808-.1.749.749,0,0,1-.5-.932l.865-2.952Z" transform="translate(-2675.225 -2277.688)" fill="url(#linear-gradient-8)"/>
          <path id="Path_1817" data-name="Path 1817" d="M2716.372,2010.21s2.788,7.455,0,9.721-9.439,4.82-10.925,9.335-4.008,13.291-7.381,16.4c0,0-2.371-.23-3.258-1.175,0,0,1.922-13.1,3.189-16.462,1.1-2.911,2.715-7.113,5.814-9.461.887-.672.733-1.737.322-2.771l-.749-1.884Z" transform="translate(-2675.224 -1972.844)" fill="#005d50"/>
          <path id="Path_1818" data-name="Path 1818" d="M2617.869,1882.974c4.675.282,3.218-7.186,3.134-7.483l7.095,5.011s-.375,3.994-6.274,6.089a7.332,7.332,0,0,1-4.062.294A6.457,6.457,0,0,0,2617.869,1882.974Z" transform="translate(-2605.799 -1851.45)" fill="#0b2a16"/>
          <path id="Path_1819" data-name="Path 1819" d="M2499.858,1923.514a3.615,3.615,0,0,1,3.716,0,11.793,11.793,0,0,0,5.323,2.248,6.454,6.454,0,0,1-.108,3.911,10.041,10.041,0,0,1-5.287-3.418.842.842,0,0,0-1.166-.128c-.363.286-.715.678-.651,1.091.126.814-.819,1.073-.89.778a12.139,12.139,0,0,1,.323-2.045s-1.89,1.9-2.627,2.63a1.293,1.293,0,0,1-1.665,0S2498.116,1924.725,2499.858,1923.514Z" transform="translate(-2496.826 -1894.238)" fill="url(#linear-gradient-9)"/>
          <path id="Path_1820" data-name="Path 1820" d="M2657.934,1755.984s-6.8-2.723-19.457,7.726a4.756,4.756,0,0,0,.1,4.136c1.153,1.948,12.141,11.438,13.652,16.7a15.54,15.54,0,0,0,13.317-2.917S2664.945,1766.983,2657.934,1755.984Z" transform="translate(-2624.067 -1743.477)" fill="#0b2a16"/>
          <path id="Path_1821" data-name="Path 1821" d="M2662.128,1734.33l3.348,4.059a1.332,1.332,0,0,1,.176,1.432,3.806,3.806,0,0,1-4.012,2.137,2.055,2.055,0,0,1-1.689-1.152l-2.341-4.839Z" transform="translate(-2641.705 -1724.253)" fill="url(#linear-gradient-10)"/>
          <path id="Path_1822" data-name="Path 1822" d="M2826.782,1776.278c.789-3.215-7.208-10.384-7.208-10.384l1.943-7s17.268,11.5,12.867,20.739a6.73,6.73,0,0,1-2.44,2.874A10.765,10.765,0,0,0,2826.782,1776.278Z" transform="translate(-2787.649 -1746.389)" fill="#0b2a16"/>
          <path id="Path_1823" data-name="Path 1823" d="M2825.115,1831.857a.189.189,0,0,0,.183-.144c.808-3.287-6.935-10.273-7.265-10.569a.189.189,0,1,0-.252.281c.079.071,7.9,7.129,7.15,10.2a.189.189,0,0,0,.138.228A.177.177,0,0,0,2825.115,1831.857Z" transform="translate(-2785.977 -1802.436)" fill="#0b2a16"/>
          <path id="Path_1824" data-name="Path 1824" d="M2697.275,1930.444s9.481,3.681,11.8.912a1.551,1.551,0,0,0,.317-.636,10.763,10.763,0,0,1,5.162,6.232c-4.986,3.187-13.51-1.773-15.815-3.234a1.72,1.72,0,0,0-1.273-.234,11.766,11.766,0,0,1-3.253.328c-1.211-.187-2.952,4.087-4.916,2.769C2689.293,1936.581,2690.975,1929.153,2697.275,1930.444Z" transform="translate(-2670.255 -1900.832)" fill="url(#linear-gradient-11)"/>
          <g id="Group_25" data-name="Group 25" transform="translate(11.073)">
            <path id="Path_1825" data-name="Path 1825" d="M2629.643,1664.987c-.034.131.785,9,.785,9l5.056-.575.474-8.524S2630.207,1662.8,2629.643,1664.987Z" transform="translate(-2627.577 -1660.871)" fill="url(#linear-gradient-12)"/>
            <path id="Path_1826" data-name="Path 1826" d="M2615.833,1638.242l.1,4.507a.625.625,0,0,1-.019.17c-.088.343-.477,1.5-1.636,1.029a5.667,5.667,0,0,0-2.729-.666.629.629,0,0,0-.51.676,27.237,27.237,0,0,0,.691,4.168.628.628,0,0,0,.718.452,20.274,20.274,0,0,0,4.543-1.3.63.63,0,0,0,.367-.53c.076-1.126.318-4.55.534-5.493.2-.886,1.362-1.3,1.861-1.442a.621.621,0,0,0,.38-.306,1.632,1.632,0,0,0-.833-2.485.63.63,0,0,1-.307-.854,1.635,1.635,0,0,0-.665-2.347,2.307,2.307,0,0,0-2.808.359.63.63,0,0,1-.808.006.5.5,0,0,0-.565-.043.62.62,0,0,1-.844-.36,1.881,1.881,0,0,0-2.053-1.321c-2.252.136-2.771,2.558-2.346,4.058s2.859,1.213,4.129.62a2.693,2.693,0,0,1,2.554.619A.624.624,0,0,1,2615.833,1638.242Z" transform="translate(-2608.77 -1632.456)" fill="#070908"/>
            <path id="Path_1827" data-name="Path 1827" d="M2699.441,1707.344s-.629-2.645.373-3.166,2.349-.045,1.843,1.765C2701.025,1708.2,2699.441,1707.344,2699.441,1707.344Z" transform="translate(-2690.296 -1696.905)" fill="url(#linear-gradient-13)"/>
          </g>
        </g>
        <g id="Group_27" data-name="Group 27" transform="translate(1.354 18.81)">
          <path id="Path_1828" data-name="Path 1828" d="M2531.155,1988.792h-.046l-19.893-.022a.89.89,0,0,1,0-1.781l19.893.022a.89.89,0,0,1,.044,1.78Z" transform="translate(-2492.01 -1970.731)" fill="#005d0c"/>
          <path id="Path_1829" data-name="Path 1829" d="M2326.472,1822.613h16.567a3.158,3.158,0,0,1,2.856,1.81l7.659,16.24h-20.588a1.919,1.919,0,0,1-1.785-1.214l-5.939-15.028A1.323,1.323,0,0,1,2326.472,1822.613Z" transform="translate(-2325.148 -1822.613)" fill="#005d0c"/>
          <path id="Path_1830" data-name="Path 1830" d="M2432.434,1891.677c.359,1.115.094,2.2-.593,2.419s-1.533-.5-1.892-1.62-.094-2.2.593-2.42S2432.075,1890.561,2432.434,1891.677Z" transform="translate(-2419.438 -1883.35)" fill="#7d97f4"/>
        </g>
        <g id="Group_29" data-name="Group 29" transform="translate(0 36.682)">
          <g id="Group_28" data-name="Group 28" transform="translate(4.528 1.779)">
            <path id="Path_1831" data-name="Path 1831" d="M2358.075,2062.356a.859.859,0,0,1-.33-.066.8.8,0,0,1-.437-1.063l17.532-39.457a.846.846,0,0,1,1.1-.423.8.8,0,0,1,.438,1.063l-17.532,39.457A.838.838,0,0,1,2358.075,2062.356Z" transform="translate(-2357.239 -2021.28)" fill="#bae2bc"/>
            <path id="Path_1832" data-name="Path 1832" d="M2398.028,2062.355a.838.838,0,0,1-.769-.49l-17.531-39.457a.8.8,0,0,1,.437-1.063.846.846,0,0,1,1.1.423l17.532,39.458a.8.8,0,0,1-.437,1.063A.852.852,0,0,1,2398.028,2062.355Z" transform="translate(-2377.442 -2021.279)" fill="#bae2bc"/>
            <path id="Path_1833" data-name="Path 1833" d="M2906.7,2062.356a.862.862,0,0,1-.33-.066.8.8,0,0,1-.437-1.063l17.532-39.457a.846.846,0,0,1,1.1-.423.8.8,0,0,1,.438,1.063l-17.531,39.457A.839.839,0,0,1,2906.7,2062.356Z" transform="translate(-2851.593 -2021.28)" fill="#bae2bc"/>
            <path id="Path_1834" data-name="Path 1834" d="M2946.649,2062.355a.838.838,0,0,1-.769-.49l-13.705-30.845-3.827-8.612a.8.8,0,0,1,.438-1.063.846.846,0,0,1,1.1.423l3.966,8.926,13.566,30.532a.8.8,0,0,1-.438,1.063A.85.85,0,0,1,2946.649,2062.355Z" transform="translate(-2871.794 -2021.279)" fill="#bae2bc"/>
          </g>
          <path id="Path_1835" data-name="Path 1835" d="M2392.9,2004.342a.962.962,0,0,0-.166-.73.758.758,0,0,0-.608-.321h-79.757a.889.889,0,0,0-.765.469,1.121,1.121,0,0,0-.059.974l.864,2.094a1.209,1.209,0,0,0,1.1.786h78.071a.949.949,0,0,0,.9-.831Z" transform="translate(-2311.46 -2003.291)" fill="#bae2bc"/>
        </g>
      </g>
      <g id="Group_35" data-name="Group 35" transform="translate(86.342 16.599)">
        <g id="Group_32" data-name="Group 32" transform="translate(27.238 15.146)">
          <path id="Path_1836" data-name="Path 1836" d="M1795.155,1876.24a.672.672,0,0,1,.017-.174c.867-3.436,4.411-5.2,4.411-5.2l1.7.134c.98,3.029,1.612,4.507,1.455,5.334,0,.023-.012.045-.018.068A40.436,40.436,0,0,1,1795.155,1876.24Z" transform="translate(-1778.382 -1762.559)" fill="#febb94"/>
          <path id="Path_1837" data-name="Path 1837" d="M1802.726,1925.332a.739.739,0,0,1-.541.546,23.391,23.391,0,0,1-6.514-.092.621.621,0,0,1-.515-.619A40.43,40.43,0,0,0,1802.726,1925.332Z" transform="translate(-1778.384 -1811.486)" fill="url(#linear-gradient-14)"/>
          <path id="Path_1838" data-name="Path 1838" d="M1825.732,1844.052l.746,3.593a.588.588,0,0,0,.5.483,4.949,4.949,0,0,0,1.156-.018.738.738,0,0,0,.585-.868l-.519-3.19Z" transform="translate(-1805.935 -1738.394)" fill="url(#linear-gradient-15)"/>
          <path id="Path_1839" data-name="Path 1839" d="M1988.5,1922.3a9.852,9.852,0,0,1-3.249-.464c0,.181,0,.365.006.556a.359.359,0,0,0,.343.366l10-.065a.457.457,0,0,0,.367-.665C1994.653,1922.136,1991.315,1922.378,1988.5,1922.3Z" transform="translate(-1949.675 -1808.483)" fill="url(#linear-gradient-14)"/>
          <path id="Path_1840" data-name="Path 1840" d="M1995.968,1879.168a.469.469,0,0,0-.04-.075,12.739,12.739,0,0,0-7.574-4.755l-2.131-.067a10.225,10.225,0,0,0-.967,4.7,9.847,9.847,0,0,0,3.249.464C1991.319,1879.518,1994.657,1879.276,1995.968,1879.168Z" transform="translate(-1949.679 -1765.623)" fill="#febb94"/>
          <path id="Path_1841" data-name="Path 1841" d="M1991.036,1836.907c.024.159.316,2.573.429,3.51a.464.464,0,0,0,.391.419,4.894,4.894,0,0,0,1.464-.022.631.631,0,0,0,.478-.633v-3.791Z" transform="translate(-1954.888 -1731.49)" fill="url(#linear-gradient-17)"/>
          <path id="Path_1842" data-name="Path 1842" d="M1821.1,1367.1s-3.411,30.316-1.516,49.263a14.661,14.661,0,0,0,3.41-.379s3.544-29.641,4.691-38.123a.285.285,0,0,1,.562-.018c1.415,7.136,6.971,35.119,7.631,37.762a4.725,4.725,0,0,0,3.411,0s-3.032-40.547-5.305-47.747Z" transform="translate(-1799.88 -1308.623)" fill="#005d50"/>
          <path id="Path_1843" data-name="Path 1843" d="M1770.717,1003.371s14.4-2.274,25.769.758l-.758,11.747s-3.032,16.295-5.305,23.495c0,0-8.716,1.516-12.884-.758,0,0-3.411-20.463-5.305-23.495C1772.232,1015.118,1770.338,1007.16,1770.717,1003.371Z" transform="translate(-1756.316 -980.134)" fill="#00b14f"/>
          <path id="Path_1844" data-name="Path 1844" d="M1859.235,906.148l-1.435,9.7s4.008,1.841,6.814-.079l-.6-6.846Z" transform="translate(-1834.831 -893.266)" fill="url(#linear-gradient-18)"/>
          <path id="Path_1845" data-name="Path 1845" d="M1646.477,854.941s-32.538-8.857-16.382-31.634l1.093,1.548s-4.868,15.427,11.257,16.893C1642.446,841.748,1646.622,852.519,1646.477,854.941Z" transform="translate(-1625.595 -818.619)" fill="#0bae54"/>
          <path id="Path_1846" data-name="Path 1846" d="M1669.774,780.721s-.366-4.4,1.832-4.764,2.932,1.832,3.3,2.932-3.3,3.3-4.031,3.3S1669.774,780.721,1669.774,780.721Z" transform="translate(-1665.383 -775.916)" fill="url(#linear-gradient-19)"/>
          <path id="Path_1847" data-name="Path 1847" d="M1955.329,866.056s32.538-8.857,16.382-31.634l-1.093,1.548s4.867,15.427-11.257,16.893C1959.361,852.863,1955.185,863.634,1955.329,866.056Z" transform="translate(-1922.709 -828.635)" fill="#0bae54"/>
          <path id="Path_1848" data-name="Path 1848" d="M2075.109,791.836s.367-4.4-1.832-4.764-2.932,1.832-3.3,2.932,3.3,3.3,4.031,3.3S2075.109,791.836,2075.109,791.836Z" transform="translate(-2025.999 -785.932)" fill="url(#linear-gradient-20)"/>
          <g id="Group_31" data-name="Group 31" transform="translate(17.502 3.46)">
            <path id="Path_1849" data-name="Path 1849" d="M1854.639,855.292s3.208,6.039,2.8,8.479-4.387,2.265-7.859.283l-2.427-6.521Z" transform="translate(-1842.736 -850.901)" fill="url(#linear-gradient-21)"/>
            <path id="Path_1850" data-name="Path 1850" d="M1809.524,820.849a.249.249,0,0,0,.109-.364,6.5,6.5,0,0,1-.893-1.9s-.577-.369,1.468-.859,5.094-1.249,5.735-2.99c.625-1.7-1.017-5.964-3.636-2.564a.249.249,0,0,1-.395,0,2.566,2.566,0,0,0-3.126-1.016,2.354,2.354,0,0,0-1.612,2.275.247.247,0,0,1-.293.253,2.871,2.871,0,0,0-3.352,1.563c-.684,1.5-.239,2.355.166,2.771a.248.248,0,0,1-.106.412,1.493,1.493,0,0,0-1.054,1.7c.087,1.579,1.852,1.439,2.354,1.368a.249.249,0,0,1,.221.078c.431.477,2.372,2.5,4.473,2.745a.251.251,0,0,0,.263-.332l-.909-2.643a.25.25,0,0,1,.135-.31Z" transform="translate(-1802.531 -810.898)" fill="#070908"/>
            <path id="Path_1851" data-name="Path 1851" d="M1854.514,908.219s-2.284-1.567-2.451-.247,2.057,1.912,3.159,1.42Z" transform="translate(-1847.155 -897.892)" fill="url(#linear-gradient-22)"/>
          </g>
        </g>
        <g id="Group_33" data-name="Group 33">
          <path id="Path_1852" data-name="Path 1852" d="M1367.068,623.9l3.133,6.348a1.966,1.966,0,0,0,1.48,1.075l7.005,1.018a1.965,1.965,0,0,1,1.089,3.352l-5.069,4.941a1.966,1.966,0,0,0-.565,1.74l1.2,6.977a1.965,1.965,0,0,1-2.852,2.072l-6.266-3.294a1.965,1.965,0,0,0-1.829,0l-6.266,3.294a1.965,1.965,0,0,1-2.852-2.072l1.2-6.977a1.965,1.965,0,0,0-.565-1.74l-5.069-4.941a1.965,1.965,0,0,1,1.089-3.352l7.005-1.018a1.965,1.965,0,0,0,1.48-1.075l3.133-6.348A1.965,1.965,0,0,1,1367.068,623.9Z" transform="translate(-1350.24 -622.803)" opacity="0.51" fill="url(#linear-gradient-23)"/>
          <path id="Path_1853" data-name="Path 1853" d="M1384.217,661.28a.776.776,0,0,1-.363-.094l-6.266-3.294a3.152,3.152,0,0,0-2.934,0l-6.266,3.294a.775.775,0,0,1-.363.094.8.8,0,0,1-.6-.288.746.746,0,0,1-.165-.626l1.2-6.977a3.154,3.154,0,0,0-.906-2.791l-5.07-4.941a.778.778,0,0,1,.432-1.327l7.005-1.018a3.152,3.152,0,0,0,2.374-1.725l3.133-6.348a.778.778,0,0,1,1.4,0l3.133,6.348a3.152,3.152,0,0,0,2.374,1.725l7.006,1.018a.778.778,0,0,1,.431,1.327l-5.069,4.941a3.152,3.152,0,0,0-.907,2.791l1.2,6.977a.747.747,0,0,1-.165.626A.8.8,0,0,1,1384.217,661.28Z" transform="translate(-1361.056 -633.618)" fill="url(#linear-gradient-23)"/>
          <path id="Path_1854" data-name="Path 1854" d="M1406.173,769.066a.178.178,0,0,1-.169-.123,4.178,4.178,0,0,0-1.053-1.694l-1.929-1.88a.178.178,0,0,1,.249-.255l1.928,1.88a4.537,4.537,0,0,1,1.144,1.839.178.178,0,0,1-.17.233Z" transform="translate(-1397.752 -750.991)" opacity="0.51" fill="url(#linear-gradient-23)"/>
          <path id="Path_1855" data-name="Path 1855" d="M1472.027,852.031a.178.178,0,0,1-.083-.336l.839-.441a4.518,4.518,0,0,1,4.2,0,.178.178,0,0,1-.166.315,4.162,4.162,0,0,0-3.873,0l-.839.441A.178.178,0,0,1,1472.027,852.031Z" transform="translate(-1459.82 -828.188)" opacity="0.51" fill="url(#linear-gradient-23)"/>
          <path id="Path_1856" data-name="Path 1856" d="M1412.7,687.382a1.431,1.431,0,0,1-.418-.063.178.178,0,0,1,.1-.341,1.085,1.085,0,0,0,1.039-.232,1.072,1.072,0,0,0,.353-1.006l-.62-3.616a4.517,4.517,0,0,1,1.3-4l2.627-2.561a1.1,1.1,0,0,0-.607-1.87l-3.63-.528a4.517,4.517,0,0,1-3.4-2.471l-1.623-3.29a1.1,1.1,0,0,0-1.966,0l-1.624,3.29a4.517,4.517,0,0,1-3.4,2.471l-3.63.528a1.088,1.088,0,0,0-.571.263.178.178,0,0,1-.237-.266,1.445,1.445,0,0,1,.757-.349l3.63-.527a4.161,4.161,0,0,0,3.134-2.277l1.623-3.29a1.453,1.453,0,0,1,2.6,0l1.623,3.29a4.162,4.162,0,0,0,3.134,2.277l3.63.527a1.452,1.452,0,0,1,.8,2.477l-2.627,2.561a4.162,4.162,0,0,0-1.2,3.684l.62,3.616a1.457,1.457,0,0,1-1.429,1.7Z" transform="translate(-1391.773 -662.124)" opacity="0.51" fill="url(#linear-gradient-23)"/>
        </g>
        <g id="Group_34" data-name="Group 34" transform="translate(77.385 36.865)">
          <path id="Path_1857" data-name="Path 1857" d="M2146.458,996.552l1.5,5.134a1.486,1.486,0,0,0,.96.994l5.078,1.676a1.485,1.485,0,0,1,.371,2.637l-4.42,3.011a1.487,1.487,0,0,0-.649,1.22l-.024,5.348a1.485,1.485,0,0,1-2.394,1.167l-4.229-3.273a1.485,1.485,0,0,0-1.361-.24l-5.094,1.629a1.485,1.485,0,0,1-1.85-1.915l1.805-5.034a1.483,1.483,0,0,0-.192-1.368l-3.124-4.341a1.485,1.485,0,0,1,1.25-2.351l5.345.162a1.483,1.483,0,0,0,1.242-.606l3.164-4.312A1.485,1.485,0,0,1,2146.458,996.552Z" transform="translate(-2132.551 -995.483)" fill="#fff" opacity="0.51"/>
          <path id="Path_1858" data-name="Path 1858" d="M2155.853,1025.319a.586.586,0,0,1-.257-.117l-4.229-3.273a2.382,2.382,0,0,0-2.183-.385l-5.094,1.629a.585.585,0,0,1-.282.022.606.606,0,0,1-.41-.293.562.562,0,0,1-.04-.487l1.805-5.034a2.381,2.381,0,0,0-.308-2.2l-3.124-4.341a.588.588,0,0,1,.495-.931l5.346.161a2.381,2.381,0,0,0,1.992-.972l3.164-4.312a.588.588,0,0,1,1.038.183l1.5,5.134a2.381,2.381,0,0,0,1.54,1.594l5.078,1.676a.588.588,0,0,1,.147,1.044l-4.42,3.011a2.381,2.381,0,0,0-1.041,1.957l-.025,5.348a.565.565,0,0,1-.2.444A.606.606,0,0,1,2155.853,1025.319Z" transform="translate(-2140.72 -1003.655)" fill="url(#linear-gradient-23)"/>
          <path id="Path_1859" data-name="Path 1859" d="M2170.213,1092.086a.136.136,0,0,1-.11-.114,3.151,3.151,0,0,0-.561-1.4l-1.188-1.652a.134.134,0,1,1,.218-.157l1.188,1.651a3.425,3.425,0,0,1,.609,1.518.134.134,0,0,1-.115.152A.136.136,0,0,1,2170.213,1092.086Z" transform="translate(-2164.79 -1079.487)" fill="#fff" opacity="0.51"/>
          <path id="Path_1860" data-name="Path 1860" d="M2207.2,1165.411a.135.135,0,0,1-.017-.261l.682-.218a3.413,3.413,0,0,1,3.128.551.134.134,0,1,1-.164.213,3.144,3.144,0,0,0-2.882-.508l-.682.218A.132.132,0,0,1,2207.2,1165.411Z" transform="translate(-2199.718 -1148.025)" fill="#fff" opacity="0.51"/>
          <path id="Path_1861" data-name="Path 1861" d="M2177.173,1044.376a1.1,1.1,0,0,1-.3-.1.135.135,0,1,1,.122-.24.819.819,0,0,0,.8-.036.81.81,0,0,0,.395-.7l.013-2.771a3.413,3.413,0,0,1,1.491-2.8l2.29-1.561a.828.828,0,0,0-.206-1.47l-2.632-.869a3.413,3.413,0,0,1-2.207-2.285l-.776-2.66a.828.828,0,0,0-1.463-.258l-1.639,2.234a3.412,3.412,0,0,1-2.855,1.392l-2.77-.084a.823.823,0,0,0-.459.12.134.134,0,1,1-.141-.229,1.088,1.088,0,0,1,.609-.161l2.77.083a3.143,3.143,0,0,0,2.63-1.283l1.64-2.234a1.1,1.1,0,0,1,1.938.342l.777,2.66a3.142,3.142,0,0,0,2.033,2.1l2.632.869a1.1,1.1,0,0,1,.274,1.948l-2.291,1.56a3.143,3.143,0,0,0-1.374,2.584l-.012,2.771a1.1,1.1,0,0,1-1.286,1.078Z" transform="translate(-2163.387 -1024.792)" fill="#fff" opacity="0.51"/>
        </g>
      </g>
    </g>
  </g>
</svg>
