<svg xmlns="http://www.w3.org/2000/svg" width="32" height="32" viewBox="0 0 32 32">
  <g id="_1" data-name="1" transform="translate(-1891 -495)">
    <circle id="Ellipse_17" data-name="Ellipse 17" cx="16" cy="16" r="16" transform="translate(1891 495)" fill="#d9f3e5"/>
    <g id="Group_260" data-name="Group 260" transform="translate(1899.06 501.403)">
      <path id="Path_55" data-name="Path 55" d="M64.862,56.441l-.625-.065c-.022,0-.044-.022-.065-.044A6.8,6.8,0,0,0,62.215,54a.1.1,0,0,1-.022-.065l.1-.982a7.043,7.043,0,0,0,.087-1.171.364.364,0,0,0-.4-.32,4.756,4.756,0,0,0-1.4.269,4.2,4.2,0,0,1,.08.8l-8.044,1.149a7.056,7.056,0,0,0-2.2,2.247l-.3.575a5.452,5.452,0,0,0-.56,1.978v.3A5.694,5.694,0,0,0,50.8,62.281c.022.022.022.044.007.087a2.306,2.306,0,0,0,.109,3.011,2.533,2.533,0,0,0,1.833.8h.087a2.577,2.577,0,0,0,1.782-.691l.531-.509a.07.07,0,0,1,.065-.015,8.57,8.57,0,0,0,3.36.109c.022-.007.044.007.065.022l.4.378a2.716,2.716,0,0,0,3.527.153,2.3,2.3,0,0,0,.6-2.807c-.022-.022,0-.044,0-.065a6.637,6.637,0,0,0,1.025-1.505c.022-.022.044-.044.065-.044l.625-.065a1.343,1.343,0,0,0,1.2-1.316V57.772A1.365,1.365,0,0,0,64.862,56.441Z" transform="translate(-49.56 -48.398)" fill="#04b14e"/>
      <path id="Path_56" data-name="Path 56" d="M61.763,50.588a4.159,4.159,0,0,1-1.789,4.284H55.443a4.144,4.144,0,1,1,6.32-4.284Z" transform="translate(-50.65 -47.25)" fill="#fedb48"/>
      <path id="Path_57" data-name="Path 57" d="M61.175,57.984H54.492a.422.422,0,1,1,0-.844h6.684a.422.422,0,1,1,0,.844Z" transform="translate(-50.79 -49.947)" fill="#202f3f"/>
    </g>
  </g>
</svg>
