<svg xmlns="http://www.w3.org/2000/svg" width="32" height="32" viewBox="0 0 32 32">
  <g id="_5" data-name="5" transform="translate(-857 -761)">
    <circle id="Ellipse_9" data-name="Ellipse 9" cx="16" cy="16" r="16" transform="translate(857 761)" fill="#d9f3e5"/>
    <g id="Group_259" data-name="Group 259" transform="translate(866 771)">
      <path id="Path_49" data-name="Path 49" d="M69.7,527.98a.961.961,0,0,1,.956,1.055V531.5l-.764,1.05-.163,3.7a.552.552,0,0,1-.548.531h-1.1a.544.544,0,0,1-.548-.531l-.163-3.7-.77-1.05v-2.461a.944.944,0,0,1,.245-.741.962.962,0,0,1,.711-.315h.262l.338.577.466-.274.49.274h0l.367-.577Z" transform="translate(-55.891 -524.96)" fill="#fedb48"/>
      <path id="Path_50" data-name="Path 50" d="M70.273,523.7v.414a.9.9,0,0,1-.9.9h-.047a.9.9,0,0,1-.9-.9V523.7a.9.9,0,0,1,.9-.9h.047A.9.9,0,0,1,70.273,523.7Z" transform="translate(-56.658 -522.8)" fill="#fedb48"/>
      <path id="Path_51" data-name="Path 51" d="M60.518,527.98a.961.961,0,0,1,.956,1.055V531.5l-.764,1.05-.163,3.7a.552.552,0,0,1-.548.531H58.9a.544.544,0,0,1-.548-.531l-.163-3.7-.77-1.05v-2.461a.944.944,0,0,1,.245-.741.962.962,0,0,1,.711-.315h.262l.338.577.466-.274.49.274.367-.577Z" transform="translate(-52.064 -524.96)" fill="#04b14e"/>
      <path id="Path_52" data-name="Path 52" d="M61.1,523.7v.414a.9.9,0,0,1-.9.9h-.047a.9.9,0,0,1-.9-.9V523.7a.9.9,0,0,1,.9-.9H60.2A.9.9,0,0,1,61.1,523.7Z" transform="translate(-52.835 -522.8)" fill="#04b14e"/>
      <g id="Group_258" data-name="Group 258">
        <path id="Path_53" data-name="Path 53" d="M51.348,527.98a.961.961,0,0,1,.956,1.055V531.5l-.764,1.05-.163,3.7a.552.552,0,0,1-.548.531h-1.1a.544.544,0,0,1-.548-.531l-.163-3.7-.77-1.05v-2.461a.944.944,0,0,1,.245-.741.962.962,0,0,1,.711-.315h.262l.338.577.461-.274.49.274.367-.577Z" transform="translate(-48.241 -524.96)" fill="#fedb48"/>
        <path id="Path_54" data-name="Path 54" d="M51.933,523.7v.414a.9.9,0,0,1-.9.9h-.047a.9.9,0,0,1-.9-.9V523.7a.9.9,0,0,1,.9-.9h.047A.9.9,0,0,1,51.933,523.7Z" transform="translate(-49.012 -522.8)" fill="#fedb48"/>
      </g>
    </g>
  </g>
</svg>
