<svg xmlns="http://www.w3.org/2000/svg" width="32" height="32" viewBox="0 0 32 32">
  <g id="_6" data-name="6" transform="translate(-857 -426)">
    <circle id="Ellipse_14" data-name="Ellipse 14" cx="16" cy="16" r="16" transform="translate(857 426)" fill="#d9f3e5"/>
    <g id="Group_269" data-name="Group 269" transform="translate(867 432)">
      <path id="Path_80" data-name="Path 80" d="M59.846,191.115l-.124.242-1.634-.088-1.363.9-1.363-.9-1.634.088-.124-.242-.614-1.215-1.457-.737.088-1.634-.9-1.363.9-1.363-.088-1.634,1.457-.737.737-1.457,1.634.088,1.363-.9,1.363.9,1.634-.088.737,1.457,1.457.737-.088,1.634.9,1.363-.9,1.363.088,1.634-1.457.737Zm.726-4.949a3.846,3.846,0,1,0-3.846,3.846A3.847,3.847,0,0,0,60.572,186.165Z" transform="translate(-50.72 -180.16)" fill="#fedb48"/>
      <path id="Path_81" data-name="Path 81" d="M61.851,198.73v7.162l-3.121-1.905-3.121,1.905V198.73l.124.242,1.634-.089,1.363.9,1.363-.9,1.634.089Z" transform="translate(-52.725 -185.416)" fill="#04b14e"/>
      <path id="Path_82" data-name="Path 82" d="M58.216,183.82a3.846,3.846,0,1,1-3.846,3.846A3.847,3.847,0,0,1,58.216,183.82Zm2.023,6.229v-1.481a.974.974,0,0,0-.973-.973,1.3,1.3,0,0,1-2.1,0,.974.974,0,0,0-.973.973v1.481Zm-.938-4.182a1.085,1.085,0,1,0-1.085,1.085A1.083,1.083,0,0,0,59.3,185.867Z" transform="translate(-52.217 -181.661)" fill="#04b14e"/>
      <g id="Group_268" data-name="Group 268" transform="translate(3.976 3.7)">
        <path id="Path_83" data-name="Path 83" d="M61.507,191.183v1.481H57.46v-1.481a.974.974,0,0,1,.973-.973,1.3,1.3,0,0,0,2.1,0A.974.974,0,0,1,61.507,191.183Z" transform="translate(-57.46 -187.408)" fill="#fedb48"/>
        <path id="Path_84" data-name="Path 84" d="M60.135,185.46a1.085,1.085,0,1,1-1.085,1.085A1.083,1.083,0,0,1,60.135,185.46Z" transform="translate(-58.112 -185.46)" fill="#fedb48"/>
      </g>
    </g>
  </g>
</svg>
