<svg xmlns="http://www.w3.org/2000/svg" width="32" height="32" viewBox="0 0 32 32">
  <g id="_9" data-name="9" transform="translate(-857 -761)">
    <circle id="Ellipse_9" data-name="Ellipse 9" cx="16" cy="16" r="16" transform="translate(857 761)" fill="#d9f3e5"/>
    <g id="Group_259" data-name="Group 259" transform="translate(861.653 770)">
      <path id="Path_49" data-name="Path 49" d="M70.391,527.98a1.175,1.175,0,0,1,1.17,1.291v3.01l-.934,1.284-.2,4.522a.675.675,0,0,1-.67.649H68.409a.665.665,0,0,1-.67-.649l-.2-4.522L66.6,532.28v-3.01a1.155,1.155,0,0,1,.3-.906,1.177,1.177,0,0,1,.87-.385h.321l.414.706.571-.335.6.335h0l.449-.706Z" transform="translate(-54.696 -524.286)" fill="#fedb48"/>
      <path id="Path_50" data-name="Path 50" d="M70.684,523.9v.506a1.1,1.1,0,0,1-1.1,1.1h-.057a1.1,1.1,0,0,1-1.1-1.1V523.9a1.1,1.1,0,0,1,1.1-1.1h.057A1.1,1.1,0,0,1,70.684,523.9Z" transform="translate(-55.224 -522.8)" fill="#fedb48"/>
      <path id="Path_51" data-name="Path 51" d="M61.211,527.98a1.175,1.175,0,0,1,1.17,1.291v3.01l-.934,1.284-.2,4.522a.675.675,0,0,1-.67.649H59.229a.665.665,0,0,1-.67-.649l-.2-4.522-.941-1.284v-3.01a1.154,1.154,0,0,1,.3-.906,1.177,1.177,0,0,1,.87-.385h.321l.414.706.571-.335.6.335.449-.706Z" transform="translate(-52.064 -524.286)" fill="#04b14e"/>
      <path id="Path_52" data-name="Path 52" d="M61.514,523.9v.506a1.1,1.1,0,0,1-1.1,1.1h-.057a1.1,1.1,0,0,1-1.1-1.1V523.9a1.1,1.1,0,0,1,1.1-1.1h.057A1.1,1.1,0,0,1,61.514,523.9Z" transform="translate(-52.594 -522.8)" fill="#04b14e"/>
    </g>
  </g>
</svg>
